<svg width="15" height="14" viewBox="0 0 15 14" fill="none" xmlns="http://www.w3.org/2000/svg">
<path d="M10.3422 3.89013L14.2317 4.43869C14.5538 4.48268 14.8245 4.70003 14.9273 4.9976C15.0302 5.29776 14.9463 5.6238 14.7135 5.84633L11.8931 8.49082L12.559 12.2842C12.6131 12.5947 12.4805 12.9104 12.2098 13.0941C11.9419 13.2778 11.5873 13.3011 11.2977 13.1536L7.82229 11.3811L4.34962 13.1536C4.05729 13.3011 3.70272 13.2778 3.43476 13.0941C3.1668 12.9104 3.03146 12.5947 3.0883 12.2842L3.75415 8.49082L0.933244 5.84633C0.700198 5.6238 0.617374 5.29776 0.719687 4.9976C0.821728 4.70003 1.09158 4.48268 1.41612 4.43869L5.30237 3.89013L7.04547 0.465998C7.18892 0.180951 7.49207 0 7.82229 0C8.15521 0 8.45836 0.180951 8.60181 0.465998L10.3422 3.89013Z" fill="#0065FC"/>
</svg>
