<svg width="52" height="51" viewBox="0 0 52 51" fill="none" xmlns="http://www.w3.org/2000/svg">
<g id="Group 15">
<path id="Rectangle 14" d="M51.5 1V0.5H51H16C7.43959 0.5 0.5 7.43959 0.5 16V35C0.5 43.5604 7.43959 50.5 16 50.5H51H51.5V50V1Z" fill="#F2F2F2" stroke="#F2F2F2"/>
<path id="Vector" d="M25.1359 33.5955C23.2328 31.3326 19 25.8481 19 22.7675C19 19.0299 22.134 16 26 16C29.8646 16 33 19.0299 33 22.7675C33 25.8481 28.7344 31.3326 26.8641 33.5955C26.4156 34.1348 25.5844 34.1348 25.1359 33.5955ZM26 25.0234C27.287 25.0234 28.3333 24.0117 28.3333 22.7675C28.3333 21.5233 27.287 20.5117 26 20.5117C24.713 20.5117 23.6667 21.5233 23.6667 22.7675C23.6667 24.0117 24.713 25.0234 26 25.0234Z" fill="black"/>
</g>
</svg>
